<svg xmlns="http://www.w3.org/2000/svg" viewBox="0 0 900 300" fill="white">
  <rect x="390" y="60" width="120" height="240" rx="2"/>
  <rect x="380" y="40" width="20" height="30" rx="2"/>
  <rect x="410" y="40" width="20" height="30" rx="2"/>
  <rect x="440" y="40" width="20" height="30" rx="2"/>
  <rect x="470" y="40" width="20" height="30" rx="2"/>
  <rect x="500" y="40" width="20" height="30" rx="2"/>
  <polygon points="450,0 430,50 470,50"/>
  <rect x="280" y="120" width="90" height="180" rx="2"/>
  <rect x="270" y="100" width="20" height="28" rx="2"/>
  <rect x="295" y="100" width="20" height="28" rx="2"/>
  <rect x="320" y="100" width="20" height="28" rx="2"/>
  <rect x="530" y="120" width="90" height="180" rx="2"/>
  <rect x="530" y="100" width="20" height="28" rx="2"/>
  <rect x="555" y="100" width="20" height="28" rx="2"/>
  <rect x="580" y="100" width="20" height="28" rx="2"/>
  <polygon points="325,60 305,105 345,105"/>
  <polygon points="575,60 555,105 595,105"/>
  <rect x="160" y="170" width="100" height="130" rx="2"/>
  <rect x="640" y="170" width="100" height="130" rx="2"/>
  <rect x="0" y="220" width="160" height="80" rx="2"/>
  <rect x="740" y="220" width="160" height="80" rx="2"/>
</svg>
